<svg xmlns="http://www.w3.org/2000/svg" width="48" height="48" viewBox="0 0 48 48">
    <g fill="#929292" fill-rule="evenodd">
        <path d="M23.57 45.355c-12.01 0-21.78-9.771-21.78-21.78 0-12.012 9.77-21.784 21.78-21.784 12.012 0 21.781 9.772 21.781 21.783 0 12.01-9.77 21.781-21.78 21.781M23.57 0C10.571 0 0 10.575 0 23.574c0 12.996 10.572 23.57 23.57 23.57 12.999 0 23.57-10.574 23.57-23.57C47.14 10.574 36.57 0 23.57 0"/>
        <path d="M24.13 7.945c2.14 0 3.879 1.74 3.879 3.877 0 2.14-1.74 3.88-3.879 3.88a3.883 3.883 0 0 1-3.878-3.88 3.882 3.882 0 0 1 3.878-3.877m0 9.548a5.676 5.676 0 0 0 5.67-5.671 5.675 5.675 0 0 0-5.67-5.668 5.675 5.675 0 0 0-5.668 5.668 5.676 5.676 0 0 0 5.668 5.67M20.14 37.594h7.758v-16.11H20.14v16.11zm12.233 0h-2.686V20.586c0-.492-.4-.894-.894-.894H15.664a.895.895 0 0 0 0 1.791h2.687v16.11h-2.687a.895.895 0 0 0 0 1.792h16.709a.896.896 0 0 0 0-1.791z"/>
    </g>
</svg>
